<svg xmlns="http://www.w3.org/2000/svg" viewBox="0 0 192 192" fill="none">
  <rect width="192" height="192" rx="28" fill="#7c5e1e"/>
  <g fill="#f8f3e3" fill-rule="evenodd" transform="translate(36 36) scale(1.0)">
    <rect x="30" y="32" width="60" height="4" rx="0.5"/>
    <path d="M 58 38 L 58 60 L 70 60 A 11 11 0 0 0 70 38 Z M 64 44 L 70 44 A 5 5 0 0 1 70 54 L 64 54 Z"/>
    <path d="M 58 60 L 58 84 L 72 84 A 12 12 0 0 0 72 60 Z M 64 66 L 72 66 A 6 6 0 0 1 72 78 L 64 78 Z"/>
    <rect x="32" y="40" width="4" height="44" rx="0.5"/>
    <rect x="41" y="40" width="4" height="44" rx="0.5"/>
    <rect x="50" y="40" width="4" height="44" rx="0.5"/>
    <rect x="30" y="84" width="28" height="4" rx="0.5"/>
  </g>
</svg>
