<svg xmlns="http://www.w3.org/2000/svg" viewBox="0 0 512 512" fill="none">
  <defs>
    <linearGradient id="icoGrad512" x1="0" y1="0" x2="1" y2="1">
      <stop offset="0%" stop-color="#0a1f3d"/>
      <stop offset="50%" stop-color="#1e3a8a"/>
      <stop offset="100%" stop-color="#38bdf8"/>
    </linearGradient>
  </defs>
  <rect width="512" height="512" rx="80" fill="#f8fafc"/>
  <g transform="translate(88 32)">
    <path d="M 168 0 L 326 0 A 10 10 0 0 1 336 10 L 336 295 Q 336 374 246 442 L 168 488 L 90 442 Q 0 374 0 295 L 0 10 A 10 10 0 0 1 10 0 L 168 0 Z" fill="url(#icoGrad512)"/>
    <path d="M 168 0 L 326 0 A 10 10 0 0 1 336 10 L 336 227 L 0 227 L 0 10 A 10 10 0 0 1 10 0 L 168 0 Z" fill="#ffffff" opacity="0.15"/>
    <path d="M 168 0 L 326 0 A 10 10 0 0 1 336 10 L 336 295 Q 336 374 246 442 L 168 488 L 90 442 Q 0 374 0 295 L 0 10 A 10 10 0 0 1 10 0 L 168 0 Z" fill="none" stroke="#fbbf24" stroke-width="1.8" opacity="0.55"/>
    <g fill="#ffffff" transform="translate(0 16)">
      <rect x="85" y="72" width="32" height="332" rx="4.5"/>
      <path d="M 117 86 L 117 194 L 197 194 A 54 54 0 0 0 197 86 Z M 144 113 L 197 113 A 27 27 0 0 1 197 167 L 144 167 Z" fill-rule="evenodd"/>
      <path d="M 117 207 L 117 340 L 216 340 A 67 67 0 0 0 216 207 Z M 144 234 L 216 234 A 40 40 0 0 1 216 314 L 144 314 Z" fill-rule="evenodd"/>
      <rect x="45" y="193" width="247" height="4.5" rx="2.2" opacity="0.7"/>
      <circle cx="50" cy="207" r="8" opacity="0.85"/>
      <circle cx="287" cy="207" r="8" opacity="0.85"/>
      <circle cx="168" cy="196" r="5" fill="#10b981"/>
    </g>
  </g>
</svg>
