<svg xmlns="http://www.w3.org/2000/svg" viewBox="0 0 600 560" fill="none">
  <defs>
    <style>@import url('https://fonts.googleapis.com/css2?family=Inter:wght@500;700;800&amp;display=swap');</style>
  </defs>
  <!-- Marca: quadrado dourado + coluna/capitel em "B" -->
  <g transform="translate(228 18)">
    <rect width="144" height="144" rx="18" fill="#8a6f1f"/>
    <g fill="#ffffff" transform="translate(12 12) scale(1.0)">
      <path d="M28 8 h26 a23 23 0 0 1 0 46 H28 Z M42 22 h12 a8.5 8.5 0 0 1 0 17 h-12 Z" fill-rule="evenodd"/>
      <rect x="8" y="50" width="104" height="8.5" rx="4.25"/>
      <rect x="20" y="64" width="10" height="34" rx="3"/>
      <rect x="35" y="64" width="10" height="34" rx="3"/>
      <rect x="50" y="64" width="10" height="34" rx="3"/>
      <rect x="65" y="64" width="10" height="34" rx="3"/>
      <rect x="80" y="64" width="10" height="34" rx="3"/>
      <rect x="12" y="102" width="96" height="8.5" rx="4.25"/>
    </g>
  </g>
  <!-- Wordmark -->
  <text x="300" y="285" text-anchor="middle" font-family="Inter, sans-serif" font-size="104" font-weight="800" fill="#2b2920" letter-spacing="6">BREDA</text>
  <line x1="150" y1="330" x2="450" y2="330" stroke="#c2a14e" stroke-width="1.4"/>
  <text x="300" y="372" text-anchor="middle" font-family="Inter, sans-serif" font-size="22" font-weight="600" fill="#3a3830" letter-spacing="11">SOCIEDADE DE ADVOGADOS</text>
</svg>
