<svg xmlns="http://www.w3.org/2000/svg" viewBox="0 0 150 215" fill="none">
  <!-- Logo Breda Advocacia · símbolo Aegis (escudo + B com balança) -->
  <defs>
    <linearGradient id="markGrad" x1="0" y1="0" x2="1" y2="1">
      <stop offset="0%" stop-color="#0a1f3d"/>
      <stop offset="50%" stop-color="#1e3a8a"/>
      <stop offset="100%" stop-color="#38bdf8"/>
    </linearGradient>
    <linearGradient id="markInner" x1="0" y1="0" x2="0" y2="1">
      <stop offset="0%" stop-color="#ffffff" stop-opacity="0.18"/>
      <stop offset="100%" stop-color="#ffffff" stop-opacity="0"/>
    </linearGradient>
  </defs>
  <path d="M 75 0 L 145 0 A 5 5 0 0 1 150 5 L 150 130 Q 150 165 110 195 L 75 215 L 40 195 Q 0 165 0 130 L 0 5 A 5 5 0 0 1 5 0 L 75 0 Z" fill="url(#markGrad)"/>
  <path d="M 75 0 L 145 0 A 5 5 0 0 1 150 5 L 150 100 L 0 100 L 0 5 A 5 5 0 0 1 5 0 L 75 0 Z" fill="url(#markInner)"/>
  <path d="M 75 0 L 145 0 A 5 5 0 0 1 150 5 L 150 130 Q 150 165 110 195 L 75 215 L 40 195 Q 0 165 0 130 L 0 5 A 5 5 0 0 1 5 0 L 75 0 Z" fill="none" stroke="#fbbf24" stroke-width="0.8" opacity="0.5"/>
  <g fill="#ffffff">
    <rect x="38" y="32" width="14" height="148" rx="2"/>
    <path d="M 52 38 L 52 86 L 88 86 A 24 24 0 0 0 88 38 Z M 64 50 L 88 50 A 12 12 0 0 1 88 74 L 64 74 Z" fill-rule="evenodd"/>
    <path d="M 52 92 L 52 152 L 96 152 A 30 30 0 0 0 96 92 Z M 64 104 L 96 104 A 18 18 0 0 1 96 140 L 64 140 Z" fill-rule="evenodd"/>
    <rect x="20" y="86" width="110" height="2" rx="1" opacity="0.7"/>
    <circle cx="22" cy="92" r="3.5" opacity="0.85"/>
    <circle cx="128" cy="92" r="3.5" opacity="0.85"/>
    <circle cx="75" cy="87" r="2.2" fill="#10b981"/>
  </g>
</svg>
